<svg width="512" height="512" viewBox="0 0 512 512" fill="none" xmlns="http://www.w3.org/2000/svg" role="img" aria-labelledby="title desc">
  <title id="title">Projet Centenaire — icône</title>
  <desc id="desc">Icône d'application Projet Centenaire.</desc>
  <rect x="0" y="0" width="512" height="512" rx="112" fill="#F4F0E8"/>
  <g transform="translate(0 0)">
    <path d="M256 116 V396" stroke="#15130F" stroke-width="7" stroke-linecap="round"/>
    <path d="M316 132 C276 103 218 107 181 144 C128 197 128 315 181 368 C218 405 276 409 316 380" stroke="#15130F" stroke-width="12" stroke-linecap="round"/>
    <path d="M348 161 C376 194 386 239 378 282" stroke="#8C857A" stroke-width="9" stroke-linecap="round"/>
    <circle cx="256" cy="256" r="12" fill="#15130F"/>
    <circle cx="276" cy="134" r="3" fill="#15130F"/>
    <circle cx="297" cy="143" r="3.5" fill="#15130F"/>
    <circle cx="316" cy="157" r="4.5" fill="#15130F"/>
    <circle cx="333" cy="176" r="5.3" fill="#15130F"/>
    <circle cx="346" cy="199" r="6" fill="#15130F"/>
    <circle cx="356" cy="225" r="6.8" fill="#15130F"/>
  </g>
</svg>